Coordinates
version=1
nRows=40
nColumns=34
inDegrees=no

Units are S.I. units (second, meters, Newtons, ...)
If the header above contains a line with 'inDegrees', this indicates whether rotational values are in degrees (yes) or radians (no).

endheader
time	pelvis_tilt	pelvis_list	pelvis_rotation	pelvis_tx	pelvis_ty	pelvis_tz	hip_flexion_r	hip_adduction_r	hip_rotation_r	knee_angle_r	ankle_angle_r	subtalar_angle_r	mtp_angle_r	hip_flexion_l	hip_adduction_l	hip_rotation_l	knee_angle_l	ankle_angle_l	subtalar_angle_l	mtp_angle_l	lumbar_extension	lumbar_bending	lumbar_rotation	arm_flex_r	arm_add_r	arm_rot_r	elbow_flex_r	pro_sup_r	arm_flex_l	arm_add_l	arm_rot_l	elbow_flex_l	pro_sup_l
0.9	-0.038648	0.0287159	-0.0197794	0.982315	0.967896	-0.271858	0.506989	-0.100068	0.00161862	0.725698	0.152493	0.082402	0	0.0183508	0.0484773	0.234359	0.122809	0.262653	0.191443	0	-0.102106	-0.0356753	-0.140942	-0.281902	-0.121353	-0.114193	0.681893	2.09	0.0415268	-0.201081	-0.144369	0.710886	2.09
0.91	-0.0386648	0.0275894	-0.0155272	0.993395	0.967306	-0.271903	0.513096	-0.100082	-0.00703079	0.67149	0.162151	0.0968434	0	0.0016727	0.0476242	0.246504	0.116339	0.266915	0.177658	0	-0.103523	-0.0330683	-0.144794	-0.282655	-0.119765	-0.117685	0.678646	2.09	0.0515608	-0.202905	-0.134863	0.726621	2.09
0.92	-0.038262	0.0278486	-0.011173	1.00457	0.966411	-0.271904	0.517633	-0.10185	-0.01554	0.616926	0.17226	0.118073	0	-0.015922	0.0483498	0.263036	0.109318	0.269751	0.157089	0	-0.10531	-0.0321754	-0.148359	-0.283634	-0.117794	-0.121857	0.674892	2.09	0.0613243	-0.205082	-0.12499	0.742924	2.09
0.93	-0.0376457	0.0292294	-0.00690869	1.01583	0.965201	-0.271834	0.52106	-0.104622	-0.0230334	0.562607	0.181802	0.145032	0	-0.0336811	0.0501097	0.280008	0.102748	0.27303	0.135895	0	-0.107262	-0.0327262	-0.151596	-0.28474	-0.115567	-0.126342	0.670607	2.09	0.0706909	-0.207538	-0.11512	0.759819	2.09
0.94	-0.0366585	0.0314675	-0.00278615	1.0272	0.963704	-0.271687	0.523296	-0.108134	-0.0296582	0.508981	0.190811	0.178371	0	-0.0518962	0.0525547	0.297367	0.0964895	0.27678	0.114417	0	-0.109571	-0.0344054	-0.154529	-0.28595	-0.113162	-0.131081	0.666112	2.09	0.0796416	-0.210212	-0.105361	0.777259	2.09
0.95	-0.0352911	0.0342245	0.00105719	1.03867	0.961944	-0.271445	0.524398	-0.111852	-0.0350671	0.456373	0.199003	0.21715	0	-0.0706301	0.0552628	0.314842	0.0904731	0.280998	0.0929818	0	-0.112269	-0.0368382	-0.157133	-0.287171	-0.110685	-0.135849	0.6617	2.09	0.0881343	-0.213029	-0.0959229	0.795137	2.09
0.96	-0.0335778	0.0371726	0.00452278	1.05024	0.959951	-0.271085	0.524384	-0.115225	-0.0386084	0.40497	0.206215	0.259356	0	-0.0898406	0.0578339	0.332042	0.0846797	0.285704	0.0720353	0	-0.115327	-0.0396745	-0.15942	-0.288276	-0.108229	-0.14037	0.657558	2.09	0.0961041	-0.215914	-0.0870053	0.813303	2.09
0.97	-0.0315879	0.0400172	0.00757532	1.0619	0.957763	-0.270589	0.523233	-0.117767	-0.0393553	0.354878	0.212448	0.302087	0	-0.109378	0.0599194	0.34849	0.0791702	0.290963	0.0521944	0	-0.118676	-0.0426043	-0.16146	-0.289113	-0.105874	-0.144341	0.65365	2.09	0.103458	-0.218795	-0.0787931	0.831566	2.09
0.98	-0.0294034	0.0425454	0.0102637	1.07365	0.955418	-0.269946	0.520909	-0.119179	-0.0362373	0.306249	0.21784	0.341871	0	-0.129017	0.0612787	0.363689	0.0741018	0.296872	0.034248	0	-0.122227	-0.0453984	-0.163385	-0.289533	-0.103678	-0.147489	0.649722	2.09	0.110077	-0.2216	-0.0714412	0.849725	2.09
0.99	-0.026728	0.0447828	0.0125704	1.08553	0.952978	-0.269192	0.51731	-0.120057	-0.0313716	0.260079	0.223724	0.380052	0	-0.15261	0.061861	0.400797	0.0627789	0.288272	-0.0198268	0	-0.126212	-0.0479797	-0.165139	-0.28964	-0.10169	-0.1501	0.645707	2.09	0.115884	-0.224106	-0.0650191	0.867519	2.09
1	-0.0245761	0.0464373	0.0149699	1.09742	0.950438	-0.268261	0.512952	-0.119012	-0.0166637	0.215669	0.22738	0.401224	0	-0.170437	0.0615591	0.405646	0.0612538	0.299892	-0.0207691	0	-0.12969	-0.0501942	-0.167401	-0.288932	-0.0999047	-0.150893	0.64054	2.09	0.120656	-0.226618	-0.0596504	0.88484	2.09
1.01	-0.0221899	0.0478026	0.0174414	1.10943	0.94788	-0.267238	0.508071	-0.117819	0.000464134	0.175795	0.231428	0.414635	0	-0.188302	0.0606758	0.409847	0.0602376	0.311091	-0.0204873	0	-0.13337	-0.0521317	-0.169926	-0.287805	-0.0982264	-0.1512	0.634738	2.09	0.124481	-0.228773	-0.0553588	0.901433	2.09
1.02	-0.0197075	0.0489424	0.0199966	1.12156	0.94533	-0.26614	0.503343	-0.116556	0.0191569	0.142009	0.235737	0.419475	0	-0.205877	0.0593597	0.412474	0.0600891	0.322071	-0.0177388	0	-0.137033	-0.053801	-0.172681	-0.286351	-0.0967024	-0.151019	0.628375	2.09	0.127276	-0.230486	-0.0521368	0.917033	2.09
1.03	-0.0171132	0.0498411	0.0225414	1.13384	0.942819	-0.26498	0.499166	-0.115201	0.0375171	0.115596	0.240359	0.417392	0	-0.223079	0.0576901	0.412767	0.0610407	0.332867	-0.0117129	0	-0.140629	-0.055114	-0.175474	-0.284718	-0.0953279	-0.15077	0.621893	2.09	0.129026	-0.231618	-0.0499861	0.931398	2.09
1.04	-0.0143932	0.0504251	0.0249208	1.1463	0.940374	-0.263764	0.495786	-0.113599	0.0534601	0.0974317	0.245459	0.411324	0	-0.239829	0.0557125	0.410186	0.0633439	0.343399	-0.0019917	0	-0.144087	-0.0559347	-0.178044	-0.283079	-0.0941059	-0.150921	0.61586	2.09	0.12971	-0.232026	-0.0488779	0.944308	2.09
1.05	-0.0115521	0.0505763	0.0269819	1.15896	0.938015	-0.262488	0.4933	-0.111548	0.0651943	0.0879035	0.251225	0.404573	0	-0.255995	0.0534352	0.404416	0.0673133	0.353508	0.011571	0	-0.147307	-0.0560967	-0.180148	-0.281596	-0.0930625	-0.151821	0.610739	2.09	0.12929	-0.231591	-0.0487724	0.955592	2.09
1.06	-0.00863601	0.0501592	0.028634	1.17185	0.935758	-0.261149	0.491658	-0.108893	0.0715681	0.08681	0.257555	0.399853	0	-0.271357	0.0508314	0.395308	0.0733224	0.36299	0.0289917	0	-0.150142	-0.0554275	-0.181634	-0.280396	-0.092262	-0.15356	0.606692	2.09	0.127712	-0.23023	-0.0496367	0.965121	2.09
1.07	-0.00575681	0.049018	0.0299283	1.18497	0.933611	-0.259742	0.490726	-0.105583	0.0720683	0.0933748	0.263659	0.398757	0	-0.284994	0.0477855	0.379065	0.0828431	0.373773	0.0562356	0	-0.152406	-0.0537423	-0.182559	-0.279511	-0.0918018	-0.155886	0.603513	2.09	0.124893	-0.22791	-0.0515418	0.972854	2.09
1.08	-0.00371145	0.0470357	0.0312294	1.1983	0.931526	-0.258262	0.491828	-0.10208	0.0616492	0.10774	0.269151	0.409028	0	-0.292515	0.0437825	0.336287	0.102058	0.395855	0.123593	0	-0.153234	-0.0509409	-0.183224	-0.278962	-0.0917061	-0.158397	0.600766	2.09	0.120827	-0.224742	-0.0543301	0.978626	2.09
1.09	-0.00144789	0.0442505	0.0320224	1.21194	0.929615	-0.256723	0.491686	-0.0975706	0.0532514	0.1252	0.268899	0.412828	0	-0.302855	0.039241	0.315077	0.116745	0.40235	0.15503	0	-0.153536	-0.0469677	-0.183177	-0.27888	-0.0922537	-0.160726	0.598333	2.09	0.115447	-0.220559	-0.0580068	0.982317	2.09
1.1	-0.000804727	0.0398891	0.0333091	1.22572	0.927734	-0.255069	0.493534	-0.0922696	0.0371295	0.146762	0.262839	0.423602	0	-0.302594	0.0308063	0.247427	0.146682	0.426826	0.255671	0	-0.15155	-0.04112	-0.182988	-0.279311	-0.0928713	-0.164288	0.596321	2.09	0.109089	-0.215659	-0.0621413	0.983634	2.09
1.11	0.000756442	0.0355061	0.0337029	1.23987	0.926188	-0.253404	0.492084	-0.0856961	0.0316466	0.166849	0.246854	0.418418	0	-0.311819	0.0251214	0.239973	0.161921	0.419775	0.263214	0	-0.149749	-0.0349407	-0.182506	-0.279517	-0.0949943	-0.163814	0.593561	2.09	0.100995	-0.209973	-0.0675395	0.98305	2.09
1.12	0.00161856	0.0301429	0.0340703	1.2542	0.924845	-0.251672	0.490748	-0.0778978	0.024997	0.187404	0.224129	0.414433	0	-0.317627	0.0181899	0.225928	0.181495	0.412091	0.279553	0	-0.146672	-0.0274754	-0.181619	-0.279888	-0.0973605	-0.164114	0.591115	2.09	0.0920569	-0.203603	-0.0733407	0.979827	2.09
1.13	0.00136544	0.0233915	0.034476	1.26866	0.9237	-0.249835	0.490163	-0.0684018	0.0168659	0.208139	0.197352	0.413292	0	-0.317195	0.00809478	0.193013	0.209119	0.40818	0.323238	0	-0.141949	-0.0184218	-0.180563	-0.280022	-0.100217	-0.163651	0.588382	2.09	0.0821998	-0.19672	-0.0796446	0.974053	2.09
1.14	0.000601103	0.0157792	0.0344665	1.28325	0.922836	-0.24792	0.489748	-0.057406	0.00926395	0.229045	0.170756	0.414226	0	-0.313931	-0.00345393	0.160199	0.24004	0.399157	0.365578	0	-0.136291	-0.00833068	-0.178783	-0.279885	-0.103448	-0.162951	0.585312	2.09	0.0717841	-0.189314	-0.0860691	0.96547	2.09
1.15	-0.000514112	0.00736521	0.0338868	1.29793	0.92228	-0.24592	0.489649	-0.044979	0.00228993	0.250868	0.148752	0.417525	0	-0.307434	-0.0166385	0.126781	0.275099	0.384757	0.407524	0	-0.129978	0.00268266	-0.176156	-0.279291	-0.107023	-0.161876	0.581641	2.09	0.0609674	-0.181375	-0.092794	0.954187	2.09
1.16	-0.00165628	-0.00152293	0.0324946	1.31268	0.922058	-0.243827	0.489679	-0.0312913	-0.0025221	0.274214	0.134703	0.42089	0	-0.298011	-0.0308695	0.0955115	0.314233	0.363534	0.444543	0	-0.123475	0.0142111	-0.172414	-0.278179	-0.110831	-0.160499	0.577353	2.09	0.0499856	-0.172949	-0.0998485	0.940347	2.09
1.17	-0.00289049	-0.0109538	0.03014	1.32744	0.922139	-0.2416	0.489984	-0.0162053	-0.00454984	0.299402	0.130215	0.422467	0	-0.284475	-0.0472416	0.0618866	0.359133	0.336622	0.482903	0	-0.116815	0.0262057	-0.167362	-0.276566	-0.114781	-0.158709	0.57263	2.09	0.0389763	-0.164144	-0.107307	0.924259	2.09
1.18	-0.00398646	-0.0206293	0.0266569	1.34216	0.922527	-0.239224	0.489873	0.000245035	-0.0021984	0.325627	0.134692	0.419324	0	-0.267347	-0.0651183	0.0296933	0.40913	0.302399	0.516178	0	-0.110384	0.0382656	-0.160839	-0.274445	-0.118799	-0.156342	0.56777	2.09	0.0280996	-0.155107	-0.115199	0.906223	2.09
1.19	-0.00469711	-0.0301295	0.0220807	1.35677	0.92323	-0.23672	0.488405	0.017629	0.00462179	0.351432	0.146049	0.410939	0	-0.2472	-0.0832795	0.00285216	0.463281	0.259522	0.537548	0	-0.104633	0.0498922	-0.1529	-0.271763	-0.122827	-0.153215	0.563115	2.09	0.0175341	-0.146017	-0.123526	0.886525	2.09
1.2	-0.00538452	-0.0397055	0.0166001	1.37121	0.924189	-0.234088	0.485174	0.0360681	0.0151292	0.374885	0.161013	0.397688	0	-0.223199	-0.102663	-0.0209758	0.521872	0.208538	0.550034	0	-0.0993075	0.0612815	-0.143715	-0.268548	-0.126916	-0.148998	0.559043	2.09	0.00735004	-0.137004	-0.13233	0.865466	2.09
1.21	-0.00606898	-0.0493875	0.0105334	1.38541	0.925379	-0.231378	0.479271	0.0556517	0.0299264	0.39382	0.175999	0.378087	0	-0.195694	-0.122888	-0.0401467	0.583586	0.149289	0.55082	0	-0.0945593	0.0725216	-0.133215	-0.265141	-0.130679	-0.145854	0.556581	2.09	-0.00202735	-0.128128	-0.141302	0.843028	2.09
1.22	-0.00678009	-0.0580819	0.00481886	1.39933	0.926773	-0.228781	0.471283	0.0726507	0.0398282	0.408851	0.191788	0.366074	0	-0.165114	-0.14162	-0.051547	0.646432	0.0825303	0.536237	0	-0.0904365	0.0824359	-0.123286	-0.260677	-0.135328	-0.137735	0.55458	2.09	-0.011184	-0.119653	-0.151166	0.820248	2.09
1.23	-0.00772658	-0.0662985	-0.00020066	1.41293	0.928307	-0.226332	0.46087	0.0883231	0.0487327	0.418569	0.20571	0.354946	0	-0.131699	-0.159841	-0.0576386	0.709046	0.0125153	0.512239	0	-0.0867331	0.0917109	-0.113225	-0.256236	-0.139757	-0.131017	0.55512	2.09	-0.0193919	-0.111493	-0.161112	0.796719	2.09
1.24	-0.00877827	-0.0734769	-0.00389032	1.42621	0.929962	-0.224154	0.448419	0.101278	0.0544411	0.423763	0.218386	0.347933	0	-0.0963104	-0.176244	-0.0577833	0.769531	-0.0548592	0.481846	0	-0.0835225	0.0997857	-0.103856	-0.251679	-0.144331	-0.124171	0.558021	2.09	-0.0268332	-0.103839	-0.17109	0.772916	2.09
1.25	-0.00977878	-0.0791947	-0.00581967	1.4392	0.931729	-0.222323	0.434316	0.110856	0.0565895	0.425384	0.230389	0.345536	0	-0.0596623	-0.189766	-0.0520194	0.826664	-0.11205	0.44981	0	-0.0808584	0.106241	-0.0955862	-0.24703	-0.149065	-0.117272	0.563219	2.09	-0.0335655	-0.0968563	-0.180845	0.749087	2.09
1.26	-0.0104387	-0.0831899	-0.00578888	1.45192	0.93362	-0.220868	0.418689	0.116988	0.0559222	0.424275	0.242058	0.346689	0	-0.0224053	-0.199689	-0.0408442	0.87983	-0.152031	0.421099	0	-0.0789504	0.110788	-0.0885862	-0.242217	-0.153905	-0.11044	0.570354	2.09	-0.0396376	-0.0907427	-0.190019	0.725451	2.09
1.27	-0.011134	-0.0853554	-0.00369208	1.46436	0.935596	-0.219792	0.40238	0.119836	0.0531336	0.421244	0.253455	0.350046	0	0.0159212	-0.205343	-0.0245504	0.929	-0.17145	0.396502	0	-0.0772393	0.113308	-0.0831556	-0.237102	-0.158926	-0.103136	0.578703	2.09	-0.0452563	-0.0856099	-0.198493	0.70215	2.09
1.28	-0.0118544	-0.0858594	0.000279538	1.47654	0.937653	-0.219038	0.385497	0.120002	0.0490938	0.416579	0.264462	0.354326	0	0.055022	-0.20689	-0.00450047	0.973667	-0.170306	0.377154	0	-0.0756847	0.113937	-0.0792495	-0.231513	-0.164065	-0.095298	0.587574	2.09	-0.0506069	-0.0815647	-0.206137	0.679495	2.09
1.29	-0.0127937	-0.0849999	0.0057508	1.48848	0.939768	-0.218528	0.368192	0.118266	0.0447489	0.410238	0.2747	0.358177	0	0.0946395	-0.204765	0.0176982	1.01303	-0.152591	0.361777	0	-0.0740462	0.112952	-0.0767374	-0.225304	-0.169284	-0.0867803	0.596306	2.09	-0.0559719	-0.0786259	-0.21301	0.657831	2.09
